<?xml version="1.0" encoding="UTF-8"?>
<svg version="1.1" xmlns="http://www.w3.org/2000/svg" width="512" height="512">
<path d="M0 0 C168.96 0 337.92 0 512 0 C512 168.96 512 337.92 512 512 C343.04 512 174.08 512 0 512 C0 343.04 0 174.08 0 0 Z " fill="#94D148" transform="translate(0,0)"/>
<path d="M0 0 C31.51687361 -0.0661948 63.03367988 -0.12156479 94.55060135 -0.15319599 C98.27543357 -0.1569479 102.00026565 -0.16083088 105.72509766 -0.16479492 C106.46661301 -0.16558185 107.20812836 -0.16636878 107.97211388 -0.16717956 C119.96266994 -0.18021675 131.95318265 -0.20386126 143.94371304 -0.23145839 C156.2563834 -0.25955961 168.56903112 -0.27618621 180.88173223 -0.28226548 C188.47313065 -0.28637217 196.0644065 -0.29932062 203.65576717 -0.3237494 C209.48677957 -0.34155224 215.31771425 -0.34335375 221.1487484 -0.33932304 C223.53352549 -0.34014596 225.91830738 -0.34608102 228.30305672 -0.35761642 C242.89719042 -0.42472672 255.74243366 -0.3122718 268.9375 6.625 C269.60789307 6.96982422 270.27828613 7.31464844 270.96899414 7.66992188 C295.80782743 20.7730166 312.42079736 40.76063301 321.12109375 67.4375 C325.09734969 80.72081656 326.41402626 93.45205064 326.375 107.25 C326.3737915 108.04035645 326.37258301 108.83071289 326.37133789 109.64501953 C326.22543392 144.93954576 316.19054675 175.72149265 291.625 201.75 C282.51757103 210.31916484 272.3102742 217.24312638 261.18103981 222.88570976 C259.84228926 223.56967558 258.51088513 224.26856928 257.19312096 224.99214363 C240.47132249 233.94568384 220.89061491 231.90439368 202.53399491 231.70975757 C197.65210229 231.6655525 192.7701692 231.66185173 187.8881073 231.65357971 C178.67322185 231.63195233 169.45892813 231.57468723 160.2443015 231.50413328 C149.74112181 231.42548466 139.23791162 231.38730213 128.73451006 231.35226524 C107.15600268 231.27939095 85.57805979 231.15508748 64 231 C64 239.25 64 247.5 64 256 C42.88 256 21.76 256 0 256 C0 226.3 0 196.6 0 166 C10.55427979 166.00169189 10.55427979 166.00169189 21.32177734 166.00341797 C43.85456969 166.00280967 66.38726279 165.97273979 88.91999795 165.92420971 C92.42208802 165.91669398 95.92417859 165.90943844 99.42626953 165.90234375 C100.12345028 165.900927 100.82063104 165.89951025 101.53893848 165.89805056 C112.81629671 165.8757536 124.09356339 165.87451669 135.37093751 165.88111137 C146.94918005 165.88741137 158.52721782 165.8705209 170.10540354 165.83356392 C176.60600231 165.81354549 183.10623448 165.80399113 189.60685349 165.81957626 C195.72849414 165.83392105 201.8494348 165.82015221 207.97098541 165.78504753 C210.21467721 165.77709483 212.45843234 165.77931389 214.70209885 165.79260826 C230.4815948 166.25458913 230.4815948 166.25458913 244 159 C244.95777344 158.32324219 245.91554688 157.64648438 246.90234375 156.94921875 C258.83378418 145.86208881 262.84039432 128.40055389 263.45727539 112.77392578 C263.69057611 98.99185254 261.38830433 83.36867607 253 72 C252.49855469 71.29746094 251.99710938 70.59492188 251.48046875 69.87109375 C246.86952298 64.00752571 240.96902701 59.92432588 233.53247333 58.54099691 C230.95505892 58.3601065 228.42149866 58.32975079 225.83798218 58.36076355 C224.86571957 58.35240787 223.89345697 58.3440522 222.89173186 58.33544332 C219.66100892 58.31364212 216.43143683 58.32708137 213.20068359 58.34057617 C210.87410627 58.33211735 208.54753602 58.32147068 206.22097778 58.30880737 C199.92415098 58.28070657 193.62766538 58.28312478 187.33079481 58.29110122 C180.74307214 58.29422982 174.15545745 58.26918147 167.56777954 58.24714661 C156.51701731 58.21314174 145.46633914 58.19808483 134.41552734 58.19555664 C123.03723137 58.19290587 111.6590267 58.17975776 100.28076172 58.15258789 C99.578458 58.15091451 98.87615428 58.14924113 98.15256862 58.14751705 C94.62903372 58.13905708 91.10549936 58.13039175 87.58196521 58.12162435 C58.38798066 58.04924798 29.19407569 58.01690278 0 58 C0 38.86 0 19.72 0 0 Z " fill="#FEFEFE" transform="translate(93,128)"/>
</svg>
